<?xml version="1.0" standalone="no"?>
<!DOCTYPE svg PUBLIC "-//W3C//DTD SVG 20010904//EN"
 "http://www.w3.org/TR/2001/REC-SVG-20010904/DTD/svg10.dtd">
<svg version="1.0" xmlns="http://www.w3.org/2000/svg"
 width="1024.000000pt" height="1024.000000pt" viewBox="0 0 1024.000000 1024.000000"
 preserveAspectRatio="xMidYMid meet">
<metadata>
Created by potrace 1.14, written by Peter Selinger 2001-2017
</metadata>
<g transform="translate(0.000000,1024.000000) scale(0.100000,-0.100000)"
fill="#000000" stroke="none">
<path d="M6526 9099 c-181 -23 -354 -64 -443 -105 -17 -8 -34 -14 -37 -14 -16
0 -167 -78 -221 -113 -33 -22 -64 -40 -70 -40 -5 0 -35 3 -65 7 -457 59 -823
54 -1216 -15 -66 -11 -132 -23 -149 -26 -141 -23 -547 -148 -685 -210 -243
-109 -316 -146 -458 -230 -41 -24 -75 -43 -77 -43 -21 0 -406 -279 -499 -361
-158 -140 -267 -247 -366 -359 -36 -40 -72 -81 -82 -91 -20 -22 -156 -194
-184 -234 -78 -112 -170 -255 -219 -340 -180 -313 -351 -757 -421 -1090 -28
-138 -46 -243 -59 -355 -4 -30 -9 -66 -11 -80 -9 -55 -18 -264 -18 -415 0
-216 8 -322 39 -560 12 -91 58 -313 86 -415 11 -41 22 -82 24 -90 19 -81 127
-377 187 -510 376 -833 1027 -1504 1843 -1900 539 -262 1079 -386 1685 -387
223 0 291 3 460 22 346 39 728 140 1060 280 145 62 398 189 468 236 24 16 45
29 48 29 15 0 293 196 402 282 250 200 566 539 754 808 262 376 464 821 578
1275 16 61 30 124 33 140 3 17 12 66 21 110 8 44 17 98 20 120 3 22 10 72 15
110 34 246 35 695 1 938 -6 40 -13 90 -16 112 -11 78 -64 331 -90 425 -139
512 -383 993 -709 1400 -118 147 -162 196 -312 346 l-113 113 9 48 c5 26 13
75 16 108 4 33 9 63 11 66 6 10 18 271 18 389 0 171 -14 384 -29 460 -2 8 -4
27 -4 42 -1 27 -6 30 -86 44 -16 2 -43 9 -60 14 -16 5 -48 12 -70 15 -22 3
-78 12 -125 20 -82 13 -137 20 -245 31 -27 2 -151 6 -275 8 -173 2 -257 -1
-364 -15z"/>
</g>
</svg>
